<mxfile host="app.diagrams.net" modified="2024-03-31T00:13:04.614Z" agent="Mozilla/5.0 (Windows NT 10.0; Win64; x64) AppleWebKit/537.36 (KHTML, like Gecko) Chrome/116.0.0.0 Safari/537.36" etag="BcOD1u19L8J7Ow65io_v" version="24.2.1" type="device">
  <diagram name="Page-1" id="5Z7APpFcgfUc6ZyuO-cr">
    <mxGraphModel dx="2028" dy="59" grid="1" gridSize="10" guides="1" tooltips="1" connect="1" arrows="1" fold="1" page="1" pageScale="1" pageWidth="827" pageHeight="1169" math="0" shadow="0">
      <root>
        <mxCell id="0" />
        <mxCell id="1" parent="0" />
        <mxCell id="42mja_NqprVF22DPiqrY-190" value="" style="sketch=0;pointerEvents=1;shadow=0;dashed=0;html=1;strokeColor=none;fillColor=#505050;labelPosition=center;verticalLabelPosition=bottom;verticalAlign=top;outlineConnect=0;align=center;shape=mxgraph.office.security.active_directory;" vertex="1" parent="1">
          <mxGeometry x="20" y="1187" width="53" height="46" as="geometry" />
        </mxCell>
        <mxCell id="42mja_NqprVF22DPiqrY-191" value="" style="sketch=0;pointerEvents=1;shadow=0;dashed=0;html=1;strokeColor=none;fillColor=#505050;labelPosition=center;verticalLabelPosition=bottom;verticalAlign=top;outlineConnect=0;align=center;shape=mxgraph.office.security.address_book_policies;" vertex="1" parent="1">
          <mxGeometry x="100" y="1187" width="55" height="53" as="geometry" />
        </mxCell>
        <mxCell id="42mja_NqprVF22DPiqrY-192" value="" style="sketch=0;pointerEvents=1;shadow=0;dashed=0;html=1;strokeColor=none;fillColor=#505050;labelPosition=center;verticalLabelPosition=bottom;verticalAlign=top;outlineConnect=0;align=center;shape=mxgraph.office.security.certificate;" vertex="1" parent="1">
          <mxGeometry x="180" y="1188.5" width="58" height="50" as="geometry" />
        </mxCell>
        <mxCell id="42mja_NqprVF22DPiqrY-193" value="" style="sketch=0;pointerEvents=1;shadow=0;dashed=0;html=1;strokeColor=none;fillColor=#505050;labelPosition=center;verticalLabelPosition=bottom;verticalAlign=top;outlineConnect=0;align=center;shape=mxgraph.office.security.certificate;" vertex="1" parent="1">
          <mxGeometry x="250" y="1200" width="39" height="33" as="geometry" />
        </mxCell>
        <mxCell id="42mja_NqprVF22DPiqrY-194" value="" style="sketch=0;pointerEvents=1;shadow=0;dashed=0;html=1;strokeColor=none;fillColor=#505050;labelPosition=center;verticalLabelPosition=bottom;verticalAlign=top;outlineConnect=0;align=center;shape=mxgraph.office.security.credentials;" vertex="1" parent="1">
          <mxGeometry x="310" y="1184.5" width="56" height="58" as="geometry" />
        </mxCell>
        <mxCell id="42mja_NqprVF22DPiqrY-195" value="" style="sketch=0;pointerEvents=1;shadow=0;dashed=0;html=1;strokeColor=none;fillColor=#505050;labelPosition=center;verticalLabelPosition=bottom;verticalAlign=top;outlineConnect=0;align=center;shape=mxgraph.office.security.domain;" vertex="1" parent="1">
          <mxGeometry x="20" y="1260" width="53" height="46" as="geometry" />
        </mxCell>
        <mxCell id="42mja_NqprVF22DPiqrY-196" value="" style="sketch=0;pointerEvents=1;shadow=0;dashed=0;html=1;strokeColor=none;fillColor=#505050;labelPosition=center;verticalLabelPosition=bottom;verticalAlign=top;outlineConnect=0;align=center;shape=mxgraph.office.security.domain;" vertex="1" parent="1">
          <mxGeometry x="107" y="1270" width="41" height="36" as="geometry" />
        </mxCell>
        <mxCell id="42mja_NqprVF22DPiqrY-197" value="" style="sketch=0;pointerEvents=1;shadow=0;dashed=0;html=1;strokeColor=none;fillColor=#505050;labelPosition=center;verticalLabelPosition=bottom;verticalAlign=top;outlineConnect=0;align=center;shape=mxgraph.office.security.email_address_policy;" vertex="1" parent="1">
          <mxGeometry x="172" y="1266" width="55" height="53" as="geometry" />
        </mxCell>
        <mxCell id="42mja_NqprVF22DPiqrY-198" value="" style="sketch=0;pointerEvents=1;shadow=0;dashed=0;html=1;strokeColor=none;fillColor=#505050;labelPosition=center;verticalLabelPosition=bottom;verticalAlign=top;outlineConnect=0;align=center;shape=mxgraph.office.security.federation_service;" vertex="1" parent="1">
          <mxGeometry x="240.5" y="1270" width="58" height="59" as="geometry" />
        </mxCell>
        <mxCell id="42mja_NqprVF22DPiqrY-199" value="" style="sketch=0;pointerEvents=1;shadow=0;dashed=0;html=1;strokeColor=none;fillColor=#505050;labelPosition=center;verticalLabelPosition=bottom;verticalAlign=top;outlineConnect=0;align=center;shape=mxgraph.office.security.federation_trust;" vertex="1" parent="1">
          <mxGeometry x="314" y="1270" width="58" height="59" as="geometry" />
        </mxCell>
        <mxCell id="42mja_NqprVF22DPiqrY-200" value="" style="sketch=0;pointerEvents=1;shadow=0;dashed=0;html=1;strokeColor=none;fillColor=#505050;labelPosition=center;verticalLabelPosition=bottom;verticalAlign=top;outlineConnect=0;align=center;shape=mxgraph.office.security.irm_protected_message;" vertex="1" parent="1">
          <mxGeometry x="30" y="1350" width="56" height="50" as="geometry" />
        </mxCell>
        <mxCell id="42mja_NqprVF22DPiqrY-201" value="" style="sketch=0;pointerEvents=1;shadow=0;dashed=0;html=1;strokeColor=none;fillColor=#505050;labelPosition=center;verticalLabelPosition=bottom;verticalAlign=top;outlineConnect=0;align=center;shape=mxgraph.office.security.key_permissions;" vertex="1" parent="1">
          <mxGeometry x="115" y="1350" width="25" height="53" as="geometry" />
        </mxCell>
        <mxCell id="42mja_NqprVF22DPiqrY-202" value="" style="sketch=0;pointerEvents=1;shadow=0;dashed=0;html=1;strokeColor=none;labelPosition=center;verticalLabelPosition=bottom;verticalAlign=top;outlineConnect=0;align=center;shape=mxgraph.office.security.key_permissions;fillColor=#2072B8;" vertex="1" parent="1">
          <mxGeometry x="190" y="1350" width="25" height="53" as="geometry" />
        </mxCell>
        <mxCell id="42mja_NqprVF22DPiqrY-203" value="" style="sketch=0;pointerEvents=1;shadow=0;dashed=0;html=1;strokeColor=none;labelPosition=center;verticalLabelPosition=bottom;verticalAlign=top;outlineConnect=0;align=center;shape=mxgraph.office.security.key_permissions;fillColor=#DA4026;" vertex="1" parent="1">
          <mxGeometry x="257" y="1350" width="25" height="53" as="geometry" />
        </mxCell>
        <mxCell id="42mja_NqprVF22DPiqrY-204" value="" style="sketch=0;pointerEvents=1;shadow=0;dashed=0;html=1;strokeColor=none;labelPosition=center;verticalLabelPosition=bottom;verticalAlign=top;outlineConnect=0;align=center;shape=mxgraph.office.security.key_permissions;fillColor=#7FBA42;" vertex="1" parent="1">
          <mxGeometry x="325.5" y="1350" width="25" height="53" as="geometry" />
        </mxCell>
        <mxCell id="42mja_NqprVF22DPiqrY-205" value="" style="sketch=0;pointerEvents=1;shadow=0;dashed=0;html=1;strokeColor=none;labelPosition=center;verticalLabelPosition=bottom;verticalAlign=top;outlineConnect=0;align=center;shape=mxgraph.office.security.key_permissions;fillColor=#CCCBCB;" vertex="1" parent="1">
          <mxGeometry x="43" y="1420" width="25" height="53" as="geometry" />
        </mxCell>
        <mxCell id="42mja_NqprVF22DPiqrY-206" value="" style="sketch=0;pointerEvents=1;shadow=0;dashed=0;html=1;strokeColor=none;fillColor=#505050;labelPosition=center;verticalLabelPosition=bottom;verticalAlign=top;outlineConnect=0;align=center;shape=mxgraph.office.security.key_permissions;" vertex="1" parent="1">
          <mxGeometry x="121" y="1426" width="19" height="40" as="geometry" />
        </mxCell>
        <mxCell id="42mja_NqprVF22DPiqrY-207" value="" style="sketch=0;pointerEvents=1;shadow=0;dashed=0;html=1;strokeColor=none;fillColor=#505050;labelPosition=center;verticalLabelPosition=bottom;verticalAlign=top;outlineConnect=0;align=center;shape=mxgraph.office.security.lock_protected;" vertex="1" parent="1">
          <mxGeometry x="183.5" y="1420" width="38" height="52" as="geometry" />
        </mxCell>
        <mxCell id="42mja_NqprVF22DPiqrY-208" value="" style="sketch=0;pointerEvents=1;shadow=0;dashed=0;html=1;strokeColor=none;labelPosition=center;verticalLabelPosition=bottom;verticalAlign=top;outlineConnect=0;align=center;shape=mxgraph.office.security.lock_protected;fillColor=#2072B8;" vertex="1" parent="1">
          <mxGeometry x="251" y="1420" width="38" height="52" as="geometry" />
        </mxCell>
        <mxCell id="42mja_NqprVF22DPiqrY-209" value="" style="sketch=0;pointerEvents=1;shadow=0;dashed=0;html=1;strokeColor=none;labelPosition=center;verticalLabelPosition=bottom;verticalAlign=top;outlineConnect=0;align=center;shape=mxgraph.office.security.lock_protected;fillColor=#DA4026;" vertex="1" parent="1">
          <mxGeometry x="319" y="1420" width="38" height="52" as="geometry" />
        </mxCell>
        <mxCell id="42mja_NqprVF22DPiqrY-210" value="" style="sketch=0;pointerEvents=1;shadow=0;dashed=0;html=1;strokeColor=none;labelPosition=center;verticalLabelPosition=bottom;verticalAlign=top;outlineConnect=0;align=center;shape=mxgraph.office.security.lock_protected;fillColor=#7FBA42;" vertex="1" parent="1">
          <mxGeometry x="35" y="1487" width="38" height="52" as="geometry" />
        </mxCell>
        <mxCell id="42mja_NqprVF22DPiqrY-211" value="" style="sketch=0;pointerEvents=1;shadow=0;dashed=0;html=1;strokeColor=none;labelPosition=center;verticalLabelPosition=bottom;verticalAlign=top;outlineConnect=0;align=center;shape=mxgraph.office.security.lock_protected;fillColor=#CCCBCB;" vertex="1" parent="1">
          <mxGeometry x="111.5" y="1484" width="38" height="52" as="geometry" />
        </mxCell>
        <mxCell id="42mja_NqprVF22DPiqrY-212" value="" style="sketch=0;pointerEvents=1;shadow=0;dashed=0;html=1;strokeColor=none;fillColor=#505050;labelPosition=center;verticalLabelPosition=bottom;verticalAlign=top;outlineConnect=0;align=center;shape=mxgraph.office.security.lock_protected;" vertex="1" parent="1">
          <mxGeometry x="188.5" y="1499" width="28" height="37" as="geometry" />
        </mxCell>
        <mxCell id="42mja_NqprVF22DPiqrY-213" value="" style="sketch=0;pointerEvents=1;shadow=0;dashed=0;html=1;strokeColor=none;fillColor=#505050;labelPosition=center;verticalLabelPosition=bottom;verticalAlign=top;outlineConnect=0;align=center;shape=mxgraph.office.security.lock_unprotected;" vertex="1" parent="1">
          <mxGeometry x="251.5" y="1484" width="38" height="55" as="geometry" />
        </mxCell>
        <mxCell id="42mja_NqprVF22DPiqrY-214" value="" style="sketch=0;pointerEvents=1;shadow=0;dashed=0;html=1;strokeColor=none;labelPosition=center;verticalLabelPosition=bottom;verticalAlign=top;outlineConnect=0;align=center;shape=mxgraph.office.security.lock_unprotected;fillColor=#2072B8;" vertex="1" parent="1">
          <mxGeometry x="319" y="1484" width="38" height="55" as="geometry" />
        </mxCell>
        <mxCell id="42mja_NqprVF22DPiqrY-215" value="" style="sketch=0;pointerEvents=1;shadow=0;dashed=0;html=1;strokeColor=none;fillColor=#505050;labelPosition=center;verticalLabelPosition=bottom;verticalAlign=top;outlineConnect=0;align=center;shape=mxgraph.office.security.lock_with_key_security_blue;" vertex="1" parent="1">
          <mxGeometry x="37" y="1553.5" width="47" height="58" as="geometry" />
        </mxCell>
        <mxCell id="42mja_NqprVF22DPiqrY-216" value="" style="sketch=0;pointerEvents=1;shadow=0;dashed=0;html=1;strokeColor=none;fillColor=#505050;labelPosition=center;verticalLabelPosition=bottom;verticalAlign=top;outlineConnect=0;align=center;shape=mxgraph.office.security.lock_with_key_security_orange;" vertex="1" parent="1">
          <mxGeometry x="111.5" y="1553.5" width="47" height="58" as="geometry" />
        </mxCell>
        <mxCell id="42mja_NqprVF22DPiqrY-217" value="" style="sketch=0;pointerEvents=1;shadow=0;dashed=0;html=1;strokeColor=none;fillColor=#505050;labelPosition=center;verticalLabelPosition=bottom;verticalAlign=top;outlineConnect=0;align=center;shape=mxgraph.office.security.lock_with_key_security_green;" vertex="1" parent="1">
          <mxGeometry x="184" y="1553.5" width="47" height="58" as="geometry" />
        </mxCell>
        <mxCell id="42mja_NqprVF22DPiqrY-218" value="" style="sketch=0;pointerEvents=1;shadow=0;dashed=0;html=1;strokeColor=none;fillColor=#505050;labelPosition=center;verticalLabelPosition=bottom;verticalAlign=top;outlineConnect=0;align=center;shape=mxgraph.office.security.lock_with_key_security_ghosted;" vertex="1" parent="1">
          <mxGeometry x="251.5" y="1553.5" width="47" height="58" as="geometry" />
        </mxCell>
        <mxCell id="42mja_NqprVF22DPiqrY-219" value="" style="sketch=0;pointerEvents=1;shadow=0;dashed=0;html=1;strokeColor=none;fillColor=#505050;labelPosition=center;verticalLabelPosition=bottom;verticalAlign=top;outlineConnect=0;align=center;shape=mxgraph.office.security.management_role;" vertex="1" parent="1">
          <mxGeometry x="319" y="1560" width="45" height="45" as="geometry" />
        </mxCell>
        <mxCell id="42mja_NqprVF22DPiqrY-220" value="" style="sketch=0;pointerEvents=1;shadow=0;dashed=0;html=1;strokeColor=none;fillColor=#505050;labelPosition=center;verticalLabelPosition=bottom;verticalAlign=top;outlineConnect=0;align=center;shape=mxgraph.office.security.policy;" vertex="1" parent="1">
          <mxGeometry x="31" y="1627" width="53" height="49" as="geometry" />
        </mxCell>
        <mxCell id="42mja_NqprVF22DPiqrY-221" value="" style="sketch=0;pointerEvents=1;shadow=0;dashed=0;html=1;strokeColor=none;fillColor=#505050;labelPosition=center;verticalLabelPosition=bottom;verticalAlign=top;outlineConnect=0;align=center;shape=mxgraph.office.security.policy;" vertex="1" parent="1">
          <mxGeometry x="110.5" y="1631" width="39" height="36" as="geometry" />
        </mxCell>
        <mxCell id="42mja_NqprVF22DPiqrY-222" value="" style="sketch=0;pointerEvents=1;shadow=0;dashed=0;html=1;strokeColor=none;fillColor=#505050;labelPosition=center;verticalLabelPosition=bottom;verticalAlign=top;outlineConnect=0;align=center;shape=mxgraph.office.security.protected_voice_mail;" vertex="1" parent="1">
          <mxGeometry x="176" y="1625" width="59" height="51" as="geometry" />
        </mxCell>
        <mxCell id="42mja_NqprVF22DPiqrY-223" value="" style="sketch=0;pointerEvents=1;shadow=0;dashed=0;html=1;strokeColor=none;fillColor=#505050;labelPosition=center;verticalLabelPosition=bottom;verticalAlign=top;outlineConnect=0;align=center;shape=mxgraph.office.security.retention_policy;" vertex="1" parent="1">
          <mxGeometry x="242.5" y="1623" width="54" height="55" as="geometry" />
        </mxCell>
        <mxCell id="42mja_NqprVF22DPiqrY-224" value="" style="sketch=0;pointerEvents=1;shadow=0;dashed=0;html=1;strokeColor=none;fillColor=#505050;labelPosition=center;verticalLabelPosition=bottom;verticalAlign=top;outlineConnect=0;align=center;shape=mxgraph.office.security.retention_policy_tag;" vertex="1" parent="1">
          <mxGeometry x="313.5" y="1620" width="56" height="58" as="geometry" />
        </mxCell>
        <mxCell id="42mja_NqprVF22DPiqrY-225" value="" style="sketch=0;pointerEvents=1;shadow=0;dashed=0;html=1;strokeColor=none;fillColor=#505050;labelPosition=center;verticalLabelPosition=bottom;verticalAlign=top;outlineConnect=0;align=center;shape=mxgraph.office.security.role_assignment_policy;" vertex="1" parent="1">
          <mxGeometry x="29" y="1700" width="55" height="54" as="geometry" />
        </mxCell>
        <mxCell id="42mja_NqprVF22DPiqrY-226" value="" style="sketch=0;pointerEvents=1;shadow=0;dashed=0;html=1;strokeColor=none;fillColor=#505050;labelPosition=center;verticalLabelPosition=bottom;verticalAlign=top;outlineConnect=0;align=center;shape=mxgraph.office.security.role_group;" vertex="1" parent="1">
          <mxGeometry x="101" y="1690" width="59" height="56" as="geometry" />
        </mxCell>
        <mxCell id="42mja_NqprVF22DPiqrY-227" value="" style="sketch=0;pointerEvents=1;shadow=0;dashed=0;html=1;strokeColor=none;fillColor=#505050;labelPosition=center;verticalLabelPosition=bottom;verticalAlign=top;outlineConnect=0;align=center;shape=mxgraph.office.security.secure_messaging;" vertex="1" parent="1">
          <mxGeometry x="180" y="1693.5" width="55" height="46" as="geometry" />
        </mxCell>
        <mxCell id="42mja_NqprVF22DPiqrY-228" value="" style="sketch=0;pointerEvents=1;shadow=0;dashed=0;html=1;strokeColor=none;fillColor=#505050;labelPosition=center;verticalLabelPosition=bottom;verticalAlign=top;outlineConnect=0;align=center;shape=mxgraph.office.security.security_access_portal;" vertex="1" parent="1">
          <mxGeometry x="250" y="1688" width="64" height="55" as="geometry" />
        </mxCell>
        <mxCell id="42mja_NqprVF22DPiqrY-229" value="" style="sketch=0;pointerEvents=1;shadow=0;dashed=0;html=1;strokeColor=none;fillColor=#505050;labelPosition=center;verticalLabelPosition=bottom;verticalAlign=top;outlineConnect=0;align=center;shape=mxgraph.office.security.sharing_policy;" vertex="1" parent="1">
          <mxGeometry x="311" y="1690" width="56" height="53" as="geometry" />
        </mxCell>
        <mxCell id="42mja_NqprVF22DPiqrY-230" value="" style="sketch=0;pointerEvents=1;shadow=0;dashed=0;html=1;strokeColor=none;fillColor=#505050;labelPosition=center;verticalLabelPosition=bottom;verticalAlign=top;outlineConnect=0;align=center;shape=mxgraph.office.security.trusted_application_server;" vertex="1" parent="1">
          <mxGeometry x="321" y="1767" width="46" height="57" as="geometry" />
        </mxCell>
        <mxCell id="42mja_NqprVF22DPiqrY-231" value="" style="sketch=0;pointerEvents=1;shadow=0;dashed=0;html=1;strokeColor=none;fillColor=#505050;labelPosition=center;verticalLabelPosition=bottom;verticalAlign=top;outlineConnect=0;align=center;shape=mxgraph.office.security.token_service;" vertex="1" parent="1">
          <mxGeometry x="238.5" y="1768" width="60" height="56" as="geometry" />
        </mxCell>
        <mxCell id="42mja_NqprVF22DPiqrY-232" value="" style="sketch=0;pointerEvents=1;shadow=0;dashed=0;html=1;strokeColor=none;fillColor=#505050;labelPosition=center;verticalLabelPosition=bottom;verticalAlign=top;outlineConnect=0;align=center;shape=mxgraph.office.security.token;" vertex="1" parent="1">
          <mxGeometry x="190" y="1770" width="29" height="37" as="geometry" />
        </mxCell>
        <mxCell id="42mja_NqprVF22DPiqrY-233" value="" style="sketch=0;pointerEvents=1;shadow=0;dashed=0;html=1;strokeColor=none;fillColor=#505050;labelPosition=center;verticalLabelPosition=bottom;verticalAlign=top;outlineConnect=0;align=center;shape=mxgraph.office.security.token;" vertex="1" parent="1">
          <mxGeometry x="114.5" y="1770" width="41" height="52" as="geometry" />
        </mxCell>
        <mxCell id="42mja_NqprVF22DPiqrY-234" value="" style="sketch=0;pointerEvents=1;shadow=0;dashed=0;html=1;strokeColor=none;fillColor=#505050;labelPosition=center;verticalLabelPosition=bottom;verticalAlign=top;outlineConnect=0;align=center;shape=mxgraph.office.security.split_domain_user;" vertex="1" parent="1">
          <mxGeometry x="31" y="1780" width="59" height="55" as="geometry" />
        </mxCell>
        <mxCell id="42mja_NqprVF22DPiqrY-235" value="" style="sketch=0;pointerEvents=1;shadow=0;dashed=0;html=1;strokeColor=none;fillColor=#505050;labelPosition=center;verticalLabelPosition=bottom;verticalAlign=top;outlineConnect=0;align=center;shape=mxgraph.office.security.um_mailbox_policy;" vertex="1" parent="1">
          <mxGeometry x="20" y="1860" width="55" height="53" as="geometry" />
        </mxCell>
        <mxCell id="42mja_NqprVF22DPiqrY-236" value="" style="sketch=0;pointerEvents=1;shadow=0;dashed=0;html=1;strokeColor=none;fillColor=#505050;labelPosition=center;verticalLabelPosition=bottom;verticalAlign=top;outlineConnect=0;align=center;shape=mxgraph.office.security.universal_security_group;" vertex="1" parent="1">
          <mxGeometry x="107" y="1860" width="58" height="58" as="geometry" />
        </mxCell>
      </root>
    </mxGraphModel>
  </diagram>
</mxfile>
